<?xml version="1.0" standalone="no"?>
<!DOCTYPE svg PUBLIC "-//W3C//DTD SVG 20010904//EN"
 "http://www.w3.org/TR/2001/REC-SVG-20010904/DTD/svg10.dtd">
<svg version="1.0" xmlns="http://www.w3.org/2000/svg"
 width="553.000000pt" height="249.000000pt" viewBox="0 0 553.000000 249.000000"
 preserveAspectRatio="xMidYMid meet">

<g transform="translate(0.000000,249.000000) scale(0.100000,-0.100000)"
fill="#000000" stroke="none">
<path d="M0 1245 l0 -1245 2765 0 2765 0 0 1245 0 1245 -2765 0 -2765 0 0
-1245z m5171 876 l39 -39 0 -772 0 -772 -39 -39 -39 -39 -2401 2 -2401 3 -32
33 -33 32 0 779 0 779 25 27 c14 15 34 31 45 35 11 5 1095 9 2409 9 l2388 1
39 -39z"/>
<path d="M1918 1899 c-10 -5 -12 -32 -8 -111 l5 -103 128 -3 127 -3 0 98 c0
54 -4 103 -8 109 -8 13 -224 25 -244 13z"/>
<path d="M531 1881 c-12 -8 -3 -87 58 -508 72 -499 93 -615 115 -631 6 -5 86
-12 177 -15 l167 -6 11 42 c14 52 182 1089 178 1094 -5 4 -218 25 -221 21 -2
-2 -40 -223 -86 -493 -54 -320 -88 -495 -97 -505 -13 -13 -14 48 -11 491 l3
506 -89 7 c-122 8 -188 7 -205 -3z"/>
<path d="M1389 1883 l-35 -4 -38 -277 c-32 -236 -85 -766 -86 -854 l0 -28 75
0 c53 0 75 4 75 13 0 24 39 350 42 351 2 1 35 0 74 -2 l72 -4 7 -180 7 -180
46 6 c24 3 79 6 120 6 l75 0 -6 273 c-7 275 -44 856 -56 869 -7 8 -321 18
-372 11z m151 -295 c6 -24 15 -56 20 -73 5 -16 10 -82 11 -145 l3 -115 -77 -5
-77 -5 0 50 c0 28 3 114 7 193 l6 142 48 0 48 0 11 -42z"/>
<path d="M3793 1883 c-39 -5 -33 22 -77 -308 -26 -190 -86 -786 -86 -851 0 -2
34 -4 75 -4 88 0 77 -22 100 200 9 85 19 157 23 160 4 3 37 4 75 2 l67 -4 1
-31 c1 -18 4 -97 8 -177 l6 -145 115 4 c63 1 118 6 122 10 19 18 -38 1111 -60
1133 -8 8 -322 18 -369 11z m160 -323 c10 -37 21 -118 24 -187 l6 -123 -72 0
c-39 0 -74 1 -78 3 -9 2 -5 304 4 350 5 26 7 28 51 25 l47 -3 18 -65z"/>
<path d="M4738 1883 l-58 -4 0 -37 c0 -64 -59 -955 -64 -959 -13 -14 -31 107
-71 486 -24 234 -47 445 -51 469 l-5 44 -119 -4 c-65 -2 -121 -6 -125 -10 -5
-5 146 -850 201 -1126 l7 -33 146 7 c80 4 147 8 149 9 20 17 212 1138 198
1153 -9 8 -126 11 -208 5z"/>
<path d="M2277 1453 c-5 -373 2 -629 19 -710 4 -23 7 -23 152 -23 81 0 192 7
247 15 92 13 102 16 131 47 28 31 31 43 44 150 12 107 12 123 -5 185 -20 77
-43 107 -92 124 -38 12 -36 24 7 32 46 10 86 81 94 171 5 61 2 93 -24 202 -43
184 -40 178 -113 198 -123 32 -154 36 -303 36 l-151 0 -6 -427z m348 216 c33
-23 35 -26 35 -86 0 -84 -18 -163 -43 -191 -20 -22 -92 -50 -102 -40 -7 7 -23
331 -17 342 8 15 91 -1 127 -25z m-21 -511 c8 -18 16 -61 20 -94 12 -107 -33
-163 -105 -134 -24 10 -29 18 -25 34 3 12 6 67 6 124 l0 102 46 0 c41 0 46 -3
58 -32z"/>
<path d="M2966 1610 c-4 -149 -4 -407 0 -574 l7 -304 36 -6 c20 -3 75 -6 122
-6 l86 0 8 223 c4 122 8 223 8 223 1 1 38 4 83 6 l81 5 6 -156 c4 -86 7 -189
7 -230 l0 -73 79 3 c44 2 83 7 87 11 4 5 -1 263 -12 575 l-19 568 -74 3 -73 3
6 -113 c18 -338 19 -420 5 -429 -8 -5 -51 -9 -96 -9 l-83 0 0 275 0 275 -129
0 -128 0 -7 -270z"/>
<path d="M1917 1586 c-9 -22 -9 -783 -1 -825 l7 -31 117 0 117 0 7 61 c8 80 7
276 -3 459 -4 80 -5 188 -1 240 3 52 6 96 6 97 -1 1 -56 5 -122 9 -109 6 -121
5 -127 -10z"/>
</g>
</svg>
